<svg data-v-0dd9719b="" version="1.0" xmlns="http://www.w3.org/2000/svg" xmlns:xlink="http://www.w3.org/1999/xlink" width="100%" height="100%" viewBox="0 0 340.000000 250.000000" preserveAspectRatio="xMidYMid meet" color-interpolation-filters="sRGB" style="margin: auto;"> <rect data-v-0dd9719b="" x="0" y="0" width="100%" height="100%" fill="#fff" fill-opacity="1" class="background"></rect> <rect data-v-0dd9719b="" x="0" y="0" width="100%" height="100%" fill="url(#watermark)" fill-opacity="1" class="watermarklayer"></rect> <g data-v-0dd9719b="" fill="#333" class="icon-text-wrapper icon-svg-group iconsvg" transform="translate(48.88499450683594,94.99999809265137)"><g class="iconsvg-imagesvg" transform="translate(0,0)"><g><rect fill="#333" fill-opacity="0" stroke-width="2" x="0" y="0" width="60" height="60" class="image-rect"></rect> <svg x="0" y="0" width="60" height="60" filtersec="colorsb7463261399" class="image-svg-svg primary" style="overflow: visible;"><svg xmlns="http://www.w3.org/2000/svg" viewBox="0 -0.0401301346719265 538.4000244140625 538.4000854492188"><path d="M269.2 239.28a29.92 29.92 0 1 0 29.91 29.92 29.92 29.92 0 0 0-29.91-29.92z" fill="#009bdd"></path><path d="M458.67 180.05a91.79 91.79 0 0 0-10-.59 89.76 89.76 0 0 0-89.74 89.74 89.73 89.73 0 1 1-89.73-89.74 29.91 29.91 0 1 0 0-59.82A149.52 149.52 0 1 0 418.76 269.2a29.91 29.91 0 1 1 59.82 0A209.33 209.33 0 0 1 269.2 478.57c-115.64 0-209.38-93.74-209.38-209.37S153.56 59.82 269.2 59.82a208.45 208.45 0 0 1 138.75 52.64v-.06a29.9 29.9 0 0 0 40.33-44.14c-.23-.22-.44-.45-.68-.66s-.76-.61-1.13-.91A268.13 268.13 0 0 0 269.2-.04C120.52-.04 0 120.48 0 269.16s120.52 269.2 269.2 269.2S538.4 417.87 538.4 269.2a89.73 89.73 0 0 0-79.73-89.15z" fill="#009bdd"></path></svg></svg> <!----></g></g> <g transform="translate(67,3.2887516021728516)"><g data-gra="path-name" fill-rule="" class="tp-name iconsvg-namesvg" transform="translate(0,0)"><g transform="scale(1)"><g><path d="M13.28-28.89L7.11-25.56Q5.4-28.71 1.93-32.27L1.93-32.27 7.69-35.05Q10.8-33.03 13.28-28.89L13.28-28.89ZM8.78 3.38L8.78 3.38 2.29-0.18Q6.17-5.94 7.47-13.32L7.47-13.32 13.09-11.25Q11.7-1.3 8.78 3.38ZM13.72-17.82L7.83-14.4Q5.85-17.55 2.16-21.06L2.16-21.06 7.6-24.34Q10.93-21.87 13.72-17.82L13.72-17.82ZM25.02-15.39L25.02-20.25 31-20.34Q31-16.61 31.05-15.66L31.05-15.66Q37.26-15.93 42.98-16.06L42.98-16.06 43.38-10.39Q42.21-10.3 37.39-10.17L37.39-10.17Q40.32-7.92 43.24-3.19L43.24-3.19 38.34 1.08Q35.14-4.05 31.09-8.59L31.09-8.59Q31.09-7.11 31.09-2.7L31.09-2.7 31.09 3.38 24.57 3.28Q24.97-2.79 24.97-7.42L24.97-7.42Q22.45-1.67 18.09 1.53L18.09 1.53 13.23-3.51Q17.77-5.98 19.48-9.58L19.48-9.58Q16.47-9.4 13.99-9.36L13.99-9.36 13.81-15.07Q18.31-15.16 25.02-15.39L25.02-15.39ZM20.43-24.57L20.43-24.57Q21.82-25.61 22.77-26.91L22.77-26.91 27.36-23.89Q23.54-18.77 18.27-16.47L18.27-16.47 14.08-21.33Q16.92-22.27 18.99-23.58L18.99-23.58 13.86-23.49Q13.86-28.08 13.54-34.29L13.54-34.29 19.98-34.78 19.98-33.75Q34.29-34.34 37.19-34.34 40.09-34.34 41.45-33.75 42.8-33.16 43.11-31.05 43.42-28.93 42.48-22.9L42.48-22.9 38.02-23.18Q39.69-21.87 41.4-20.29L41.4-20.29 36.81-16.56Q32.76-20.47 28.35-23.71L28.35-23.71 31.95-27.22Q34.02-26.14 36.18-24.61L36.18-24.61Q36.72-26.91 36.54-27.49L36.54-27.49Q36.31-28.21 35.19-28.33 34.06-28.44 31.16-28.44 28.26-28.44 20.2-28.13L20.2-28.13Q20.29-26.37 20.43-24.57ZM66.38 3.24L66.38 3.24 59.94 0.54Q62.14-5.76 62.69-13.59L62.69-13.59Q63.05-18.77 63.05-27.31L63.05-27.31Q63.05-30.78 63-34.7L63-34.7 69.03-34.7Q69.21-30.6 69.21-26.41L69.21-26.41Q69.21-18.99 68.89-11.52 68.58-4.05 66.38 3.24ZM72-32.85L78.07-33.07Q78.3-15.79 78.3-8.01L78.3-8.01 78.25-1.03 71.78-1.48Q72.13-8.5 72.13-15.71L72.13-15.71Q72.13-19.8 72-32.85L72-32.85ZM81.18-34.6L87.21-34.88Q87.48-14.45 87.48-5.08L87.48-5.08 87.39 3.24 80.95 2.7Q81.36-5.8 81.36-14.35L81.36-14.35Q81.36-19.3 81.18-34.6L81.18-34.6ZM60.75-26.46L60.98-19.53 57.64-19.44Q57.69-14.67 57.69-11.07L57.69-11.07Q59.31-11.61 61.34-12.38L61.34-12.38 60.98-5.35Q55.89-3.6 47.7-2.88L47.7-2.88 47.16-9.36Q49.27-9.54 50.98-9.72L50.98-9.72Q51.26-15.12 51.3-19.04L51.3-19.04 47.25-18.77 47.25-25.61Q48.06-25.61 51.3-25.79L51.3-25.79Q51.26-28.17 51.08-34.34L51.08-34.34 57.38-34.7 57.55-26.32 60.75-26.46ZM102.28-20.52L102.28-18.36 109.35-18.59 109.35-20.88Q102.69-20.52 102.28-20.52L102.28-20.52ZM116.1 3.42L109.13 3.28Q109.13-3.15 109.08-5.08L109.08-5.08 107.06-5.04Q104.94-1.26 98.46 2.75L98.46 2.75 92.7-1.71Q97.2-3.65 98.69-4.72L98.69-4.72 92.39-4.5 92.16-10.21Q101.34-10.39 109.35-10.71L109.35-10.71 109.35-13.28Q102.78-13.09 95.89-13.05L95.89-13.05 95.94-17.19Q95.94-27.45 95.22-34.06L95.22-34.06 102.02-34.7Q102.06-34.02 102.15-33.7L102.15-33.7Q116.5-34.52 123.97-34.52L123.97-34.52Q129.51-34.24 129.69-29.43L129.69-29.43Q130.09-21.69 129.74-13.77L129.74-13.77Q122.35-13.63 116.1-13.46L116.1-13.46 116.1-11.07Q124.42-11.34 132.84-11.92L132.84-11.92 133.29-6.21Q130.05-6.03 126.9-5.89L126.9-5.89Q129.87-4 133.16-0.54L133.16-0.54 125.59 2.38Q122.89-2.02 118.89-5.49L118.89-5.49Q117.45-5.4 116.1-5.35L116.1-5.35Q116.1-1.89 116.1 3.42L116.1 3.42ZM116.1-21.29L116.1-18.86Q119.43-19.04 122.89-19.35L122.89-19.35 122.89-21.6 116.1-21.29ZM116.1-28.93L116.1-26.28 122.72-26.68Q122.72-28.57 121.41-28.84L121.41-28.84Q121.05-28.98 120.11-28.98L120.11-28.98 116.1-28.93ZM102.24-28.08L102.24-25.65 109.35-25.92 109.35-28.57 102.24-28.08ZM137.79-25.2L137.7-32.09Q143.5-32.71 149.09-33.14 154.66-33.57 158.2-33.57 161.73-33.57 163.13-31.52 164.52-29.47 164.43-26.86L164.43-26.86Q167.94-28.39 171.63-32.17L171.63-32.17 176.63-28.39Q171.5-22.81 165.78-20.75L165.78-20.75Q171.13-18.36 176.35-14.76L176.35-14.76 172.35-9.27Q169.47-11.38 166.23-13.46L166.23-13.46Q166.91-9.18 167.51-7.47 168.12-5.76 169.49-5.06 170.87-4.37 172.66-4.86 174.47-5.35 176.94-7.38L176.94-7.38 177.16 0.32Q175.28 2.07 172.06 2.27 168.84 2.48 166.45 1.69 164.07 0.9 162.54-1.33 161.01-3.55 160.16-8.5 159.3-13.46 158.83-18.72 158.35-23.98 158.04-25.04 157.72-26.1 156.98-26.48 156.24-26.86 153.99-26.86 151.74-26.86 147.06-26.28 142.38-25.7 137.79-25.2L137.79-25.2Z" transform="translate(-1.9300000667572021, 35.04999923706055)"></path></g> <!----> <!----> <!----> <!----> <!----> <!----> <!----></g></g> <g data-gra="path-slogan" fill-rule="" class="tp-slogan iconsvg-slogansvg" fill="#333" transform="translate(5,44.470001220703125)"><rect x="0" height="1" y="3.9750003814697266" width="23.00918197631836"></rect> <rect height="1" y="3.9750003814697266" width="23.00918197631836" x="142.22082901000977"></rect> <g transform="translate(26.00918197631836,0)"><g transform="scale(1)"><path d="M7.17-6.09L7.17-6.09L6.09-6.09Q6-7.73 3.94-7.83L3.94-7.83Q2.02-7.78 2.02-6.33L2.02-6.33Q2.02-5.39 3.05-5.25L3.05-5.25L5.48-4.69Q7.41-4.22 7.41-2.34L7.41-2.34Q7.36 0.05 4.03 0.14L4.03 0.14Q2.20 0.14 1.45-0.61L1.45-0.61Q0.52-1.31 0.56-2.77L0.56-2.77L1.69-2.77Q1.73-0.80 4.03-0.75L4.03-0.75Q6.28-0.80 6.33-2.20L6.33-2.20Q6.52-3.38 4.45-3.75L4.45-3.75L2.67-4.13Q0.84-4.64 0.84-6.19L0.84-6.19Q0.98-8.72 3.84-8.81L3.84-8.81Q7.08-8.81 7.17-6.09ZM10.03-5.06L14.53-5.06L14.53-8.58L15.70-8.58L15.70 0L14.53 0L14.53-3.98L10.03-3.98L10.03 0L8.86 0L8.86-8.58L10.03-8.58L10.03-5.06ZM18.80-1.03L23.95-1.03L23.95 0L17.63 0L17.63-8.58L23.86-8.58L23.86-7.59L18.80-7.59L18.80-4.92L23.48-4.92L23.48-3.89L18.80-3.89L18.80-1.03ZM26.86-8.58L31.17-1.64L31.17-8.58L32.30-8.58L32.30 0L30.98 0L26.63-6.94L26.58-6.94L26.58 0L25.45 0L25.45-8.58L26.86-8.58ZM34.92-1.03L40.22-1.03L40.22 0L33.47 0L33.47-0.94L38.72-7.59L33.84-7.59L33.84-8.58L40.22-8.58L40.22-7.59L34.92-1.03ZM42.52-5.06L47.02-5.06L47.02-8.58L48.19-8.58L48.19 0L47.02 0L47.02-3.98L42.52-3.98L42.52 0L41.34 0L41.34-8.58L42.52-8.58L42.52-5.06ZM51.28-1.03L56.44-1.03L56.44 0L50.11 0L50.11-8.58L56.34-8.58L56.34-7.59L51.28-7.59L51.28-4.92L55.97-4.92L55.97-3.89L51.28-3.89L51.28-1.03ZM59.34-8.58L63.66-1.64L63.66-8.58L64.78-8.58L64.78 0L63.47 0L59.11-6.94L59.06-6.94L59.06 0L57.94 0L57.94-8.58L59.34-8.58ZM76.31-3.61L73.69-3.61L73.69-4.59L77.44-4.59L77.44 0L76.69 0L76.41-1.08Q75.42 0.09 73.59 0.14L73.59 0.14Q71.86 0.14 70.92-0.75L70.92-0.75Q69.52-2.06 69.56-4.36L69.56-4.36Q69.89-8.63 73.64-8.81L73.64-8.81Q76.83-8.63 77.30-6L77.30-6L76.17-6Q75.70-7.78 73.59-7.83L73.59-7.83Q70.92-7.64 70.78-4.31L70.78-4.31Q70.78-0.75 73.64-0.75L73.64-0.75Q74.67-0.75 75.42-1.31L75.42-1.31Q76.36-2.06 76.31-3.61L76.31-3.61ZM84.89-3.19L84.89-8.58L86.06-8.58L86.06-3.05Q85.92 0.05 82.55 0.14L82.55 0.14Q79.41 0.05 79.27-2.86L79.27-2.86L79.27-8.58L80.44-8.58L80.44-3.19Q80.48-0.84 82.59-0.80L82.59-0.80Q84.89-0.84 84.89-3.19L84.89-3.19ZM94.64-4.27L94.64-4.27Q94.45-7.64 91.64-7.83L91.64-7.83Q88.78-7.69 88.64-4.27L88.64-4.27Q88.78-0.94 91.64-0.80L91.64-0.80Q94.45-0.98 94.64-4.27ZM95.81-4.27L95.81-4.27Q95.53 0 91.64 0.14L91.64 0.14Q87.70 0 87.42-4.27L87.42-4.27Q87.66-8.72 91.64-8.81L91.64-8.81Q95.53-8.67 95.81-4.27ZM102.70-3.89L98.48-3.89L98.48 0L97.31 0L97.31-8.58L103.27-8.58L103.27-7.59L98.48-7.59L98.48-4.92L102.70-4.92L102.70-3.89ZM105.75-1.03L110.91-1.03L110.91 0L104.58 0L104.58-8.58L110.81-8.58L110.81-7.59L105.75-7.59L105.75-4.92L110.44-4.92L110.44-3.89L105.75-3.89L105.75-1.03ZM112.59-8.58L113.77-8.58L113.77 0L112.59 0L112.59-8.58Z" transform="translate(-0.5602678571428572, 8.8125)"></path></g></g></g></g></g><defs v-gra="od"></defs></svg>